<svg width="54" height="47" viewBox="0 0 54 47" fill="none" xmlns="http://www.w3.org/2000/svg">
<path d="M4.02148 22.4385L27.0002 4.48767L49.9789 22.4385" stroke="#1E6FFF" stroke-width="8" stroke-linecap="round" stroke-linejoin="round"/>
<path d="M27 4.48767V42.9537" stroke="#1E6FFF" stroke-width="8" stroke-linecap="round" stroke-linejoin="round"/>
<path d="M4.02128 26.9262C6.24217 26.9262 8.04255 24.917 8.04255 22.4385C8.04255 19.96 6.24217 17.9508 4.02128 17.9508C1.80039 17.9508 0 19.96 0 22.4385C0 24.917 1.80039 26.9262 4.02128 26.9262Z" fill="#1E6FFF"/>
<path d="M49.9788 26.9262C52.1997 26.9262 54.0001 24.917 54.0001 22.4385C54.0001 19.96 52.1997 17.9508 49.9788 17.9508C47.7579 17.9508 45.9575 19.96 45.9575 22.4385C45.9575 24.917 47.7579 26.9262 49.9788 26.9262Z" fill="#1E6FFF"/>
<path d="M26.9998 8.9754C29.2207 8.9754 31.0211 6.96619 31.0211 4.4877C31.0211 2.00921 29.2207 0 26.9998 0C24.7789 0 22.9785 2.00921 22.9785 4.4877C22.9785 6.96619 24.7789 8.9754 26.9998 8.9754Z" fill="#1E6FFF"/>
<path d="M26.9998 46.1592C28.5861 46.1592 29.8721 44.724 29.8721 42.9537C29.8721 41.1833 28.5861 39.7482 26.9998 39.7482C25.4134 39.7482 24.1274 41.1833 24.1274 42.9537C24.1274 44.724 25.4134 46.1592 26.9998 46.1592Z" fill="#0A4ED6"/>
<path d="M26.9998 33.3372C32.3934 33.3372 36.7658 28.4577 36.7658 22.4385C36.7658 16.4193 32.3934 11.5398 26.9998 11.5398C21.6063 11.5398 17.2339 16.4193 17.2339 22.4385C17.2339 28.4577 21.6063 33.3372 26.9998 33.3372Z" stroke="#EAF2FF" stroke-width="6"/>
</svg>
